<?xml version="1.0" encoding="utf-8"?>
<!-- Generator: Adobe Illustrator 27.9.0, SVG Export Plug-In . SVG Version: 6.00 Build 0)  -->
<svg version="1.1" id="레이어_1" xmlns="http://www.w3.org/2000/svg" xmlns:xlink="http://www.w3.org/1999/xlink" x="0px"
	 y="0px" viewBox="0 0 115 50" style="enable-background:new 0 0 115 50;" xml:space="preserve">
<style type="text/css">
	.st0{fill:#149473;}
	.st1{fill:#A3C856;}
	.st2{fill:#594A42;}
</style>
<path class="st0" d="M108.4,79.7c0,0-0.1,0.1-0.1,0.2c0,0.1,0.1,0.2,0.1,0.2h1v5.3h-1c0,0-0.1,0.1-0.1,0.2c0,0.1,0.1,0.2,0.1,0.2
	h0.9c0.3,0,0.4-0.1,0.4-0.4v-5.1c0-0.3-0.1-0.4-0.4-0.4h-0.9V79.7z M107.2,79.9c0-0.1-0.1-0.1-0.2-0.1c-0.1,0-0.2,0.1-0.2,0.1v5.2
	c0,0.1,0.1,0.1,0.2,0.1s0.2-0.1,0.2-0.1V79.9z M104.2,80.4c0.8,0,1.1,0.6,1.1,1.6c0,1-0.4,1.6-1.1,1.6s-1.1-0.6-1.1-1.6
	C103.1,81,103.4,80.4,104.2,80.4z M104.2,83.8c0.9,0,1.4-0.7,1.4-1.9s-0.5-1.9-1.4-1.9s-1.4,0.7-1.4,1.9
	C102.8,83.2,103.3,83.8,104.2,83.8z M101.2,81.8v-1.9c0-0.1,0-0.1-0.2-0.1c0,0-0.1,0.1-0.1,0.1v5.2c0,0.1,0,0.1,0.1,0.1
	c0.1,0,0.2-0.1,0.2-0.1v-3h0.9c0.1,0,0.1-0.1,0.1-0.2c0-0.1-0.1-0.2-0.1-0.2L101.2,81.8L101.2,81.8z M97.8,80.5
	c0.1,0,0.1,0.1,0.1,0.1v0.6c0,1,0,1.2-1.2,2.3c-0.1,0.1-0.1,0.1,0,0.2c0.1,0.1,0.2,0.1,0.2,0c1.2-1.2,1.2-1.4,1.2-2.5v-0.6
	c0-0.3-0.1-0.4-0.4-0.4H97c-0.1,0-0.1,0.1-0.1,0.2c0,0.1,0.1,0.2,0.1,0.2L97.8,80.5L97.8,80.5z M99.4,80.5c0.1,0,0.1,0.1,0.1,0.1
	v0.7c0,1-0.1,1.5-1.2,2.6c0,0.1,0,0.1,0,0.2c0.1,0.1,0.2,0.1,0.2,0c1.2-1.3,1.3-1.7,1.3-2.8v-0.7c0-0.3-0.1-0.4-0.4-0.4h-0.8
	c-0.1,0-0.1,0.1-0.1,0.2c0,0.1,0.1,0.2,0.1,0.2L99.4,80.5L99.4,80.5z M95.3,81.8v-1.9c0-0.1,0-0.1-0.2-0.1c0,0-0.2,0.1-0.2,0.1v5.2
	c0,0.1,0.1,0.1,0.2,0.1c0.1,0,0.2-0.1,0.2-0.1v-3h0.9c0.1,0,0.1-0.1,0.1-0.2c0-0.1-0.1-0.2-0.1-0.2L95.3,81.8L95.3,81.8z M93.3,80.5
	c0.1,0,0.1,0.1,0.1,0.1v0.7c0,1-0.3,1.2-2.2,2.4c-0.1,0.1,0,0.2,0,0.2c0,0.1,0.1,0.1,0.2,0.1c2-1.3,2.4-1.6,2.4-2.6v-0.7
	c0-0.3-0.1-0.4-0.4-0.4h-2c-0.1,0-0.1,0.1-0.1,0.2c0,0.1,0.1,0.2,0.1,0.2H93.3z M85.1,85.2c-0.1,0-0.1-0.1-0.1-0.1v-1.4
	c0-0.1-0.1-0.1-0.2-0.1c-0.1,0-0.2,0.1-0.2,0.1v1.4c0,0.3,0.1,0.4,0.4,0.4h3.2c0.1,0,0.1-0.1,0.1-0.2c0-0.1-0.1-0.2-0.1-0.2H85.1z
	 M87.9,83.9c0,0.1,0.1,0.1,0.2,0.1c0,0,0.2-0.1,0.2-0.1v-4c0-0.1-0.1-0.1-0.2-0.1c-0.1,0-0.2,0.1-0.2,0.1v0.9h-1.1
	c-0.1,0-0.1,0.1-0.1,0.2c0,0.1,0,0.2,0.1,0.2h1.1v1h-1.1c-0.1,0-0.1,0.1-0.1,0.2c0,0.1,0,0.2,0.1,0.2h1.1V83.9z M86.2,81.5
	c0,0.6-0.3,1.2-1.1,1.2c-0.8,0-1.1-0.6-1.1-1.2s0.3-1.2,1.1-1.2C85.9,80.4,86.2,80.9,86.2,81.5z M83.8,81.5c0,0.8,0.5,1.4,1.4,1.4
	c1,0,1.4-0.7,1.4-1.4s-0.5-1.4-1.4-1.4C84.2,80.1,83.8,80.8,83.8,81.5z M82.1,81.8v-1.9c0-0.1-0.1-0.1-0.2-0.1
	c-0.1,0-0.2,0.1-0.2,0.1v5.2c0,0.1,0.1,0.1,0.2,0.1c0.1,0,0.2-0.1,0.2-0.1v-3H83c0.1,0,0.1-0.1,0.1-0.2c0-0.1,0-0.2-0.1-0.2
	L82.1,81.8L82.1,81.8z M80.9,80.6c0.1,0,0.1-0.1,0.1-0.2c0-0.1-0.1-0.2-0.1-0.2h-3c-0.1,0-0.1,0.1-0.1,0.2c0,0.1,0.1,0.2,0.1,0.2
	h1.4v0.9c0,0.6-0.1,0.9-0.6,1.3c-0.3,0.3-0.6,0.6-1,0.9c-0.1,0.1-0.1,0.2,0,0.2c0.1,0.1,0.1,0.1,0.2,0c0.3-0.3,0.6-0.6,0.9-0.9
	c0.5-0.5,0.5-0.6,0.6-0.8c0.1,0.2,0.1,0.3,0.6,0.8c0.3,0.3,0.6,0.6,0.8,0.8c0.1,0.1,0.2,0.1,0.2,0c0.1-0.1,0.1-0.2,0-0.2
	c-0.3-0.2-0.6-0.5-0.9-0.9c-0.5-0.5-0.6-0.7-0.6-1.3v-0.8H80.9z M76.3,79.7c-0.3,0-0.4,0.1-0.4,0.4v5.1c0,0.3,0.1,0.4,0.4,0.4h0.9
	c0.1,0,0.1-0.1,0.1-0.2c0-0.1-0.1-0.2-0.1-0.2h-1v-5.3h1c0.1,0,0.1-0.1,0.1-0.2c0-0.1-0.1-0.2-0.1-0.2h-0.9V79.7z M71.5,85.3h0.4
	v-1.8c0-0.2,0-0.3,0.1-0.5c0-0.2,0.1-0.3,0.2-0.4c0.1-0.1,0.2-0.2,0.4-0.3c0.2-0.1,0.3-0.1,0.5-0.1c0.1,0,0.1,0,0.2,0l0.1-0.4
	c-0.1,0-0.1,0-0.1,0c-0.1,0-0.1,0-0.1,0c-0.3,0-0.5,0-0.6,0.2s-0.3,0.3-0.4,0.5c0,0,0-0.1,0-0.2c0-0.1,0-0.3,0-0.4h-0.4
	c0,0.1,0,0.1,0,0.2s0,0.2,0,0.3s0,0.2,0,0.3c0,0.1,0,0.2,0,0.2L71.5,85.3L71.5,85.3z M69.7,83.7v0.2c0,0.2,0,0.3-0.1,0.4
	c-0.1,0.2-0.1,0.3-0.2,0.4c-0.1,0.1-0.2,0.2-0.4,0.3C69,84.9,68.8,85,68.6,85c-0.1,0-0.2,0-0.3-0.1c-0.1-0.1-0.2-0.1-0.3-0.1
	c-0.1-0.1-0.2-0.1-0.2-0.2c-0.1-0.1-0.1-0.2-0.1-0.3c0-0.2,0.1-0.3,0.1-0.4c0.1-0.1,0.2-0.2,0.3-0.2c0.2-0.1,0.3-0.1,0.5-0.1
	s0.4-0.1,0.5-0.1H69.7z M70.1,83.1c0-0.4-0.1-0.7-0.4-0.9c-0.3-0.2-0.6-0.3-1-0.3c-0.2,0-0.5,0.1-0.7,0.1c-0.3,0.1-0.4,0.2-0.6,0.4
	l0.3,0.3c0.3-0.3,0.6-0.4,1-0.4c0.3,0,0.5,0,0.7,0.2c0.2,0.1,0.3,0.3,0.3,0.6v0.2h-0.5c-0.2,0-0.4,0-0.6,0.1
	c-0.2,0.1-0.4,0.1-0.6,0.2c-0.2,0.1-0.4,0.2-0.5,0.4c-0.2,0.2-0.2,0.4-0.2,0.6c0,0.2,0.1,0.3,0.1,0.5c0,0.1,0.2,0.2,0.3,0.3
	c0.1,0.1,0.3,0.2,0.4,0.2c0.2,0.1,0.3,0.1,0.4,0.1c0.3,0,0.5-0.1,0.7-0.2c0.2-0.1,0.4-0.3,0.5-0.5c0,0.2,0,0.4,0.1,0.6h0.4
	c0-0.1,0-0.2-0.1-0.3c-0.1-0.1,0-0.2,0-0.3c0-0.1,0-0.2,0-0.4s0-0.3,0-0.5V83.1z M63.6,83.4c0-0.1,0-0.1,0.1-0.3
	c0.1-0.1,0.1-0.3,0.2-0.4c0.1-0.1,0.2-0.3,0.4-0.3c0.2-0.1,0.4-0.2,0.6-0.2c0.2,0,0.3,0,0.5,0.1c0.2,0,0.3,0.2,0.4,0.3
	c0.1,0.1,0.2,0.2,0.3,0.4c0.1,0.2,0.1,0.3,0.1,0.4L63.6,83.4L63.6,83.4z M65.9,84.4c-0.1,0.2-0.3,0.3-0.5,0.4
	c-0.2,0.1-0.4,0.2-0.6,0.2c-0.3,0-0.5-0.1-0.6-0.2c-0.2-0.1-0.3-0.2-0.4-0.4c-0.1-0.2-0.2-0.3-0.2-0.4c-0.1-0.2-0.1-0.3-0.1-0.4h2.7
	v-0.3c0-0.2,0-0.4-0.1-0.6c-0.1-0.2-0.2-0.4-0.3-0.5c-0.2-0.2-0.3-0.3-0.5-0.4c-0.2-0.1-0.4-0.2-0.7-0.2c-0.3,0-0.5,0.1-0.7,0.2
	c-0.2,0.1-0.4,0.2-0.5,0.4c-0.2,0.2-0.3,0.4-0.4,0.6c-0.1,0.2-0.1,0.5-0.1,0.7c0,0.3,0.1,0.5,0.1,0.7c0.1,0.2,0.2,0.4,0.4,0.6
	s0.3,0.3,0.5,0.4c0.2,0.1,0.5,0.2,0.7,0.2c0.3,0,0.6-0.1,0.8-0.2c0.3-0.1,0.5-0.3,0.6-0.6L65.9,84.4z M57.8,85.3h0.5v-4.4l3,4.4h0.6
	v-5h-0.5v4.4l-3-4.4h-0.6V85.3z M51.6,83.4c0-0.1,0-0.1,0.1-0.3c0.1-0.1,0.1-0.3,0.2-0.4c0.1-0.1,0.2-0.3,0.4-0.3
	c0.2-0.1,0.4-0.2,0.6-0.2c0.2,0,0.3,0,0.5,0.1c0.2,0,0.3,0.2,0.4,0.3c0.1,0.1,0.2,0.2,0.3,0.4c0.1,0.2,0.1,0.3,0.1,0.4L51.6,83.4
	L51.6,83.4z M53.9,84.4c-0.1,0.2-0.3,0.3-0.5,0.4c-0.2,0.1-0.4,0.2-0.6,0.2c-0.3,0-0.5-0.1-0.6-0.2c-0.2-0.1-0.3-0.2-0.4-0.4
	c-0.1-0.2-0.2-0.3-0.2-0.4c-0.1-0.2-0.1-0.3-0.1-0.4h2.7v-0.3c0-0.2,0-0.4-0.1-0.6c0-0.2-0.2-0.4-0.3-0.5c-0.2-0.2-0.3-0.3-0.5-0.4
	c-0.2-0.1-0.4-0.2-0.7-0.2c-0.3,0-0.5,0.1-0.7,0.2c-0.2,0.1-0.4,0.2-0.5,0.4c-0.2,0.2-0.3,0.4-0.4,0.6c-0.1,0.2-0.1,0.5-0.1,0.7
	c0,0.3,0.1,0.5,0.1,0.7c0.1,0.2,0.2,0.4,0.4,0.6s0.3,0.3,0.5,0.4c0.2,0.1,0.5,0.2,0.7,0.2c0.3,0,0.6-0.1,0.8-0.2
	c0.3-0.1,0.5-0.3,0.6-0.6L53.9,84.4z M48.9,85.3h0.4v-1.8c0-0.2,0-0.3,0-0.5c0.1-0.2,0.1-0.3,0.2-0.4c0.1-0.1,0.2-0.2,0.4-0.3
	c0.2-0.1,0.3-0.1,0.5-0.1c0.1,0,0.1,0,0.2,0l0.1-0.4c-0.1,0-0.1,0-0.1,0h-0.1c-0.3,0-0.5,0-0.6,0.2s-0.3,0.3-0.4,0.5
	c0,0,0-0.1,0-0.2c0-0.1,0-0.3,0-0.4h-0.4c0,0.1,0,0.1,0,0.2s0,0.2,0,0.3s0,0.2,0,0.3c0,0.1,0,0.2,0,0.2L48.9,85.3L48.9,85.3z
	 M47.5,82.1h-0.4v1.6c0,0.2-0.1,0.4-0.1,0.6c-0.1,0.2-0.2,0.3-0.3,0.4c-0.1,0.1-0.2,0.2-0.4,0.3C46.2,85,46.1,85,45.9,85
	s-0.3-0.1-0.4-0.1c-0.1-0.1-0.2-0.2-0.3-0.3c-0.1-0.1-0.1-0.2-0.1-0.4c0-0.1-0.1-0.3-0.1-0.4v-1.9h-0.4v2c0,0.2,0,0.4,0,0.5
	c0.1,0.2,0.1,0.3,0.2,0.5c0.1,0.2,0.2,0.3,0.4,0.3c0.2,0.1,0.4,0.1,0.6,0.1c0.3,0,0.5-0.1,0.7-0.2c0.2-0.2,0.4-0.3,0.4-0.5
	c0,0.1,0,0.1,0,0.2c0,0.1,0,0.3,0,0.4h0.4c0-0.1,0-0.1,0-0.2c0-0.1,0-0.2,0-0.3c0-0.1,0-0.2,0-0.3c0-0.1,0-0.2,0-0.2V82.1z
	 M43.7,82.1h-1v-1h-0.4v1h-0.7v0.4h0.7v2.1c0,0.1,0,0.3,0.1,0.4c0,0.1,0.1,0.2,0.2,0.3c0,0.1,0.2,0.2,0.3,0.2
	c0.1,0.1,0.3,0.1,0.4,0.1c0.1,0,0.2,0,0.3-0.1c0.1,0,0.2-0.1,0.3-0.1l-0.1-0.4c-0.1,0.1-0.2,0.1-0.3,0.1c-0.1,0-0.2,0.1-0.3,0.1
	c-0.2,0-0.3-0.1-0.4-0.1c-0.1-0.1-0.1-0.2-0.1-0.4v-2.1h1L43.7,82.1L43.7,82.1z M40.3,83.7v0.2c0,0.2,0,0.3-0.1,0.4
	c-0.1,0.2-0.1,0.3-0.2,0.4c-0.1,0.1-0.2,0.2-0.4,0.3c-0.2,0.1-0.4,0.1-0.6,0.1c-0.1,0-0.2,0-0.3-0.1c-0.1-0.1-0.2-0.1-0.3-0.1
	c-0.1-0.1-0.2-0.1-0.2-0.2c-0.1-0.1-0.1-0.2-0.1-0.3c0-0.2,0.1-0.3,0.1-0.4c0.1-0.1,0.2-0.2,0.3-0.2c0.2-0.1,0.3-0.1,0.5-0.1
	c0.2,0,0.4-0.1,0.5-0.1H40.3z M40.7,83.1c0-0.4-0.1-0.7-0.4-0.9c-0.3-0.2-0.6-0.3-1-0.3c-0.2,0-0.5,0.1-0.7,0.1
	c-0.3,0.1-0.4,0.2-0.6,0.4l0.3,0.3c0.3-0.3,0.6-0.4,1-0.4c0.3,0,0.5,0,0.7,0.2c0.2,0.1,0.3,0.3,0.3,0.6v0.2h-0.5
	c-0.2,0-0.4,0-0.6,0.1c-0.2,0.1-0.4,0.1-0.6,0.2c-0.2,0.1-0.4,0.2-0.5,0.4C38.1,84,38,84.2,38,84.5c0,0.2,0.1,0.3,0.1,0.5
	c0,0.1,0.2,0.2,0.3,0.3c0.1,0.1,0.3,0.2,0.4,0.2c0.2,0.1,0.3,0.1,0.4,0.1c0.3,0,0.5-0.1,0.7-0.2c0.2-0.1,0.4-0.3,0.5-0.5
	c0,0.2,0,0.4,0.1,0.6h0.4c0-0.1-0.1-0.2-0.1-0.3c0-0.1,0-0.2,0-0.3c0-0.1,0-0.2,0-0.4s0-0.3,0-0.5V83.1z M32.5,85.3H33v-4.4l3,4.4
	h0.6v-5h-0.5v4.4l-3-4.4h-0.6V85.3z"/>
<g>
	<path class="st0" d="M6.6,68.5c0-0.1,0-0.1,0-0.2c-1.4,2.1-2.9,4.5-4.1,7.2C5.1,73.7,6.6,71.2,6.6,68.5z"/>
	<g>
		<path class="st0" d="M8.5,68.5c0,3.9-2.6,7.3-6.5,9.3c-0.3,0.2-0.6,0.5-0.7,0.8v0.1c4.7-2,7.9-5.8,7.9-10.2c0-1.1-0.2-2.1-0.6-3
			c-0.3,0.4-0.5,0.9-0.4,1.4C8.5,67.4,8.5,67.9,8.5,68.5z"/>
		<path class="st0" d="M10,68.5c0,4.7-3.4,8.7-8.4,10.8c-0.4,0.2-0.6,0.5-0.7,0.8c5.8-2,9.9-6.5,9.9-11.6c0-1.5-0.4-3-1-4.3
			c-0.3,0.4-0.4,0.9-0.3,1.3C9.8,66.4,10,67.4,10,68.5z"/>
		<path class="st0" d="M11.6,68.5c0,5.5-4.3,10.2-10.3,12.3c-0.4,0.1-0.6,0.4-0.7,0.8c6.9-2,11.9-7.1,11.9-13.1c0-2-0.6-3.9-1.5-5.6
			c-0.4,0.4-0.5,0.9-0.3,1.4C11.3,65.6,11.6,67,11.6,68.5z"/>
		<path class="st0" d="M12.1,61.8c-0.3,0.3-0.4,0.8-0.2,1.1c0.9,1.8,1.5,3.6,1.5,5.6c0,6.3-5.2,11.7-12.4,13.9
			c-0.4,0.1-0.7,0.4-0.7,0.8c8.1-2,14-7.8,14-14.6c0-2.3-0.4-4.5-1.8-6.3C12.3,61.9,12.1,61.8,12.1,61.8z"/>
		<path class="st0" d="M15.3,68.5c0,7.2-6.1,13.4-14.5,15.5c-0.4,0.1-0.7,0.4-0.7,0.8c9.4-2,16.2-8.6,16.2-16.3
			c0-1.3-0.5-2.5-1.3-3.5c-0.2-0.2-0.3-0.4-0.5-0.5C15,65.7,15.3,67.1,15.3,68.5z"/>
		<path class="st0" d="M0.3,90.5C9.5,89,17.1,84.2,21,77.9c0.6-1,0.7-2.3,0.2-3.4C18.4,81.9,10.7,87.7,1,89.6
			C0.5,89.6,0.2,90,0.3,90.5z"/>
		<path class="st0" d="M0.1,88.4C0.1,88.4,0.1,88.4,0.1,88.4c9.3-1.6,16.7-6.9,19.6-13.7c0.5-1.2,0.4-2.5-0.3-3.5
			C18,79.1,10.5,85.5,0.7,87.5C0.3,87.6,0,88,0.1,88.4z"/>
		<path class="st0" d="M17.4,68.5c0,8.2-7.1,15-16.7,17.2C0.3,85.8,0,86.1,0,86.5c9.2-1.8,16.3-7.4,18.1-14.5c0.4-1.4,0.1-2.8-0.7-4
			C17.3,68.1,17.4,68.3,17.4,68.5z"/>
		<path class="st0" d="M0.7,92.7C0.7,92.7,0.7,92.8,0.7,92.7c9-1.4,16.7-5.7,21.3-11.5c0.8-1,1-2.2,0.6-3.3
			c-3.9,6.9-11.7,12.1-21.2,13.8C0.9,91.8,0.6,92.3,0.7,92.7z"/>
		<path class="st0" d="M1.5,95.8c2.2,6.3,6.1,11.4,8.5,14.2c1.1,1.3,3.1,1.3,4.2,0c3.5-4,10-12.8,10-23c0-1.8-0.2-3.6-0.6-5.3
			C19.1,87.7,11.5,92.2,2.6,94C1.7,94.1,1.3,95,1.5,95.8z"/>
	</g>
	<path class="st0" d="M7.2,68.5c0,3.1-1.8,5.8-4.6,7.7c-0.4,0.3-0.6,0.6-0.8,1c3.6-1.9,6-5.1,6-8.7c0-0.6-0.1-1.1-0.2-1.7
		c-0.3,0.4-0.5,1.4-0.5,1.4S7.2,68.4,7.2,68.5z"/>
</g>
<path class="st0" d="M108.4-51.5c0,0-0.1,0.1-0.1,0.2s0.1,0.2,0.1,0.2h1v5.3h-1c0,0-0.1,0.1-0.1,0.2c0,0.1,0.1,0.2,0.1,0.2h0.9
	c0.3,0,0.4-0.1,0.4-0.4V-51c0-0.3-0.1-0.4-0.4-0.4h-0.9V-51.5z M107.2-51.2c0-0.1-0.1-0.1-0.2-0.1c-0.1,0-0.2,0.1-0.2,0.1v5.2
	c0,0.1,0.1,0.1,0.2,0.1s0.2,0,0.2-0.1V-51.2z M104.2-50.7c0.8,0,1.1,0.6,1.1,1.6c0,1-0.4,1.6-1.1,1.6s-1.1-0.6-1.1-1.6
	C103.1-50.1,103.4-50.7,104.2-50.7z M104.2-47.3c0.9,0,1.4-0.7,1.4-1.9c0-1.2-0.5-1.9-1.4-1.9s-1.4,0.7-1.4,1.9
	C102.8-48,103.3-47.3,104.2-47.3z M101.2-49.3v-1.9c0-0.1,0-0.1-0.2-0.1c0,0-0.1,0.1-0.1,0.1v5.2c0,0.1,0,0.1,0.1,0.1
	c0.1,0,0.2,0,0.2-0.1v-3h0.9c0.1,0,0.1-0.1,0.1-0.2c0-0.1-0.1-0.2-0.1-0.2L101.2-49.3L101.2-49.3z M97.8-50.6c0.1,0,0.1,0.1,0.1,0.1
	v0.6c0,1,0,1.2-1.2,2.3c-0.1,0.1-0.1,0.1,0,0.2c0.1,0.1,0.2,0.1,0.2,0c1.2-1.2,1.2-1.4,1.2-2.5v-0.6c0-0.3-0.1-0.4-0.4-0.4H97
	c-0.1,0-0.1,0.1-0.1,0.2c0,0.1,0.1,0.2,0.1,0.2L97.8-50.6L97.8-50.6z M99.4-50.6c0.1,0,0.1,0.1,0.1,0.1v0.7c0,1-0.1,1.5-1.2,2.6
	c0,0.1,0,0.1,0,0.2c0.1,0.1,0.2,0.1,0.2,0c1.2-1.3,1.3-1.7,1.3-2.8v-0.7c0-0.3-0.1-0.4-0.4-0.4h-0.8c-0.1,0-0.1,0.1-0.1,0.2
	c0,0.1,0.1,0.2,0.1,0.2L99.4-50.6L99.4-50.6z M95.3-49.3v-1.9c0-0.1,0-0.1-0.2-0.1c0,0-0.2,0.1-0.2,0.1v5.2c0,0.1,0.1,0.1,0.2,0.1
	c0.1,0,0.2,0,0.2-0.1v-3h0.9c0.1,0,0.1-0.1,0.1-0.2c0-0.1-0.1-0.2-0.1-0.2L95.3-49.3L95.3-49.3z M93.3-50.6c0.1,0,0.1,0.1,0.1,0.1
	v0.7c0,1-0.3,1.2-2.2,2.4c-0.1,0.1,0,0.2,0,0.2c0,0.1,0.1,0.1,0.2,0.1c2-1.3,2.4-1.6,2.4-2.6v-0.7c0-0.3-0.1-0.4-0.4-0.4h-2
	c-0.1,0-0.1,0.1-0.1,0.2c0,0.1,0.1,0.2,0.1,0.2H93.3z M85.1-45.9C85-45.9,85-45.9,85-46v-1.4c0-0.1-0.1-0.1-0.2-0.1
	c-0.1,0-0.2,0.1-0.2,0.1v1.4c0,0.3,0.1,0.4,0.4,0.4h3.2c0.1,0,0.1-0.1,0.1-0.2c0-0.1-0.1-0.2-0.1-0.2H85.1z M87.9-47.2
	c0,0.1,0.1,0.1,0.2,0.1c0,0,0.2-0.1,0.2-0.1v-4c0-0.1-0.1-0.1-0.2-0.1c-0.1,0-0.2,0.1-0.2,0.1v0.9h-1.1c-0.1,0-0.1,0.1-0.1,0.2
	c0,0.1,0,0.2,0.1,0.2h1.1v1h-1.1c-0.1,0-0.1,0.1-0.1,0.2c0,0.1,0,0.2,0.1,0.2h1.1V-47.2z M86.2-49.6c0,0.6-0.3,1.2-1.1,1.2
	c-0.8,0-1.1-0.6-1.1-1.2c0-0.6,0.3-1.2,1.1-1.2C85.9-50.8,86.2-50.2,86.2-49.6z M83.8-49.6c0,0.8,0.5,1.4,1.4,1.4
	c1,0,1.4-0.7,1.4-1.4c0-0.8-0.5-1.4-1.4-1.4C84.2-51,83.8-50.4,83.8-49.6z M82.1-49.3v-1.9c0-0.1-0.1-0.1-0.2-0.1
	c-0.1,0-0.2,0.1-0.2,0.1v5.2c0,0.1,0.1,0.1,0.2,0.1c0.1,0,0.2,0,0.2-0.1v-3H83c0.1,0,0.1-0.1,0.1-0.2c0-0.1,0-0.2-0.1-0.2L82.1-49.3
	L82.1-49.3z M80.9-50.6c0.1,0,0.1-0.1,0.1-0.2c0-0.1-0.1-0.2-0.1-0.2h-3c-0.1,0-0.1,0.1-0.1,0.2c0,0.1,0.1,0.2,0.1,0.2h1.4v0.9
	c0,0.6-0.1,0.9-0.6,1.3c-0.3,0.3-0.6,0.6-1,0.9c-0.1,0.1-0.1,0.2,0,0.2c0.1,0.1,0.1,0.1,0.2,0c0.3-0.3,0.6-0.6,0.9-0.9
	c0.5-0.5,0.5-0.6,0.6-0.8c0.1,0.2,0.1,0.3,0.6,0.8c0.3,0.3,0.6,0.6,0.8,0.8c0.1,0.1,0.2,0.1,0.2,0c0.1-0.1,0.1-0.2,0-0.2
	c-0.3-0.2-0.6-0.5-0.9-0.9c-0.5-0.5-0.6-0.7-0.6-1.3v-0.8H80.9z M76.3-51.5c-0.3,0-0.4,0.1-0.4,0.4v5.1c0,0.3,0.1,0.4,0.4,0.4h0.9
	c0.1,0,0.1-0.1,0.1-0.2c0-0.1-0.1-0.2-0.1-0.2h-1v-5.3h1c0.1,0,0.1-0.1,0.1-0.2c0-0.1-0.1-0.2-0.1-0.2h-0.9V-51.5z M71.5-45.8h0.4
	v-1.8c0-0.2,0-0.3,0.1-0.5c0-0.2,0.1-0.3,0.2-0.4c0.1-0.1,0.2-0.2,0.4-0.3c0.2-0.1,0.3-0.1,0.5-0.1c0.1,0,0.1,0,0.2,0l0.1-0.4
	c-0.1,0-0.1,0-0.1,0c-0.1,0-0.1,0-0.1,0c-0.3,0-0.5,0-0.6,0.2s-0.3,0.3-0.4,0.5c0,0,0-0.1,0-0.2c0-0.1,0-0.3,0-0.4h-0.4
	c0,0.1,0,0.1,0,0.2c0,0.1,0,0.2,0,0.3c0,0.1,0,0.2,0,0.3c0,0.1,0,0.2,0,0.2L71.5-45.8L71.5-45.8z M69.7-47.5v0.2
	c0,0.2,0,0.3-0.1,0.4c-0.1,0.2-0.1,0.3-0.2,0.4c-0.1,0.1-0.2,0.2-0.4,0.3c-0.2,0.1-0.4,0.1-0.6,0.1c-0.1,0-0.2,0-0.3-0.1
	c-0.1-0.1-0.2-0.1-0.3-0.1c-0.1-0.1-0.2-0.1-0.2-0.2c-0.1-0.1-0.1-0.2-0.1-0.3c0-0.2,0.1-0.3,0.1-0.4c0.1-0.1,0.2-0.2,0.3-0.2
	c0.2-0.1,0.3-0.1,0.5-0.1s0.4-0.1,0.5-0.1H69.7z M70.1-48c0-0.4-0.1-0.7-0.4-0.9c-0.3-0.2-0.6-0.3-1-0.3c-0.2,0-0.5,0.1-0.7,0.1
	c-0.3,0.1-0.4,0.2-0.6,0.4l0.3,0.3c0.3-0.3,0.6-0.4,1-0.4c0.3,0,0.5,0,0.7,0.2c0.2,0.1,0.3,0.3,0.3,0.6v0.2h-0.5
	c-0.2,0-0.4,0-0.6,0.1c-0.2,0.1-0.4,0.1-0.6,0.2c-0.2,0.1-0.4,0.2-0.5,0.4c-0.2,0.2-0.2,0.4-0.2,0.6c0,0.2,0.1,0.3,0.1,0.5
	c0,0.1,0.2,0.2,0.3,0.3s0.3,0.2,0.4,0.2c0.2,0.1,0.3,0.1,0.4,0.1c0.3,0,0.5-0.1,0.7-0.2c0.2-0.1,0.4-0.3,0.5-0.5
	c0,0.2,0,0.4,0.1,0.6h0.4c0-0.1,0-0.2-0.1-0.3c-0.1-0.1,0-0.2,0-0.3c0-0.1,0-0.2,0-0.4s0-0.3,0-0.5V-48z M63.6-47.7
	c0-0.1,0-0.1,0.1-0.3c0.1-0.1,0.1-0.3,0.2-0.4c0.1-0.1,0.2-0.3,0.4-0.3c0.2-0.1,0.4-0.2,0.6-0.2c0.2,0,0.3,0,0.5,0.1
	c0.2,0,0.3,0.2,0.4,0.3c0.1,0.1,0.2,0.2,0.3,0.4c0.1,0.2,0.1,0.3,0.1,0.4L63.6-47.7L63.6-47.7z M65.9-46.7c-0.1,0.2-0.3,0.3-0.5,0.4
	c-0.2,0.1-0.4,0.2-0.6,0.2c-0.3,0-0.5-0.1-0.6-0.2c-0.2-0.1-0.3-0.2-0.4-0.4c-0.1-0.2-0.2-0.3-0.2-0.4c-0.1-0.2-0.1-0.3-0.1-0.4h2.7
	v-0.3c0-0.2,0-0.4-0.1-0.6c-0.1-0.2-0.2-0.4-0.3-0.5c-0.2-0.2-0.3-0.3-0.5-0.4c-0.2-0.1-0.4-0.2-0.7-0.2c-0.3,0-0.5,0.1-0.7,0.2
	c-0.2,0.1-0.4,0.2-0.5,0.4c-0.2,0.2-0.3,0.4-0.4,0.6c-0.1,0.2-0.1,0.5-0.1,0.7c0,0.3,0.1,0.5,0.1,0.7c0.1,0.2,0.2,0.4,0.4,0.6
	s0.3,0.3,0.5,0.4c0.2,0.1,0.5,0.2,0.7,0.2c0.3,0,0.6-0.1,0.8-0.2c0.3-0.1,0.5-0.3,0.6-0.6L65.9-46.7z M57.8-45.8h0.5v-4.4l3,4.4h0.6
	v-5h-0.5v4.4l-3-4.4h-0.6V-45.8z M51.6-47.7c0-0.1,0-0.1,0.1-0.3c0.1-0.1,0.1-0.3,0.2-0.4c0.1-0.1,0.2-0.3,0.4-0.3
	c0.2-0.1,0.4-0.2,0.6-0.2c0.2,0,0.3,0,0.5,0.1c0.2,0,0.3,0.2,0.4,0.3c0.1,0.1,0.2,0.2,0.3,0.4c0.1,0.2,0.1,0.3,0.1,0.4L51.6-47.7
	L51.6-47.7z M53.9-46.7c-0.1,0.2-0.3,0.3-0.5,0.4c-0.2,0.1-0.4,0.2-0.6,0.2c-0.3,0-0.5-0.1-0.6-0.2c-0.2-0.1-0.3-0.2-0.4-0.4
	c-0.1-0.2-0.2-0.3-0.2-0.4c-0.1-0.2-0.1-0.3-0.1-0.4h2.7v-0.3c0-0.2,0-0.4-0.1-0.6c0-0.2-0.2-0.4-0.3-0.5c-0.2-0.2-0.3-0.3-0.5-0.4
	c-0.2-0.1-0.4-0.2-0.7-0.2c-0.3,0-0.5,0.1-0.7,0.2c-0.2,0.1-0.4,0.2-0.5,0.4c-0.2,0.2-0.3,0.4-0.4,0.6c-0.1,0.2-0.1,0.5-0.1,0.7
	c0,0.3,0.1,0.5,0.1,0.7c0.1,0.2,0.2,0.4,0.4,0.6s0.3,0.3,0.5,0.4c0.2,0.1,0.5,0.2,0.7,0.2c0.3,0,0.6-0.1,0.8-0.2
	c0.3-0.1,0.5-0.3,0.6-0.6L53.9-46.7z M48.9-45.8h0.4v-1.8c0-0.2,0-0.3,0-0.5c0.1-0.2,0.1-0.3,0.2-0.4c0.1-0.1,0.2-0.2,0.4-0.3
	c0.2-0.1,0.3-0.1,0.5-0.1c0.1,0,0.1,0,0.2,0l0.1-0.4c-0.1,0-0.1,0-0.1,0h-0.1c-0.3,0-0.5,0-0.6,0.2s-0.3,0.3-0.4,0.5
	c0,0,0-0.1,0-0.2c0-0.1,0-0.3,0-0.4h-0.4c0,0.1,0,0.1,0,0.2c0,0.1,0,0.2,0,0.3c0,0.1,0,0.2,0,0.3c0,0.1,0,0.2,0,0.2L48.9-45.8
	L48.9-45.8z M47.5-49.1h-0.4v1.6c0,0.2-0.1,0.4-0.1,0.6c-0.1,0.2-0.2,0.3-0.3,0.4c-0.1,0.1-0.2,0.2-0.4,0.3
	c-0.2,0.1-0.3,0.1-0.5,0.1s-0.3,0-0.4-0.1c-0.1-0.1-0.2-0.2-0.3-0.3c-0.1-0.1-0.1-0.2-0.1-0.4c0-0.1-0.1-0.3-0.1-0.4v-1.9h-0.4v2
	c0,0.2,0,0.4,0,0.5c0.1,0.2,0.1,0.3,0.2,0.5c0.1,0.2,0.2,0.3,0.4,0.3c0.2,0.1,0.4,0.1,0.6,0.1c0.3,0,0.5-0.1,0.7-0.2
	c0.2-0.2,0.4-0.3,0.4-0.5c0,0.1,0,0.1,0,0.2c0,0.1,0,0.3,0,0.4h0.4c0-0.1,0-0.1,0-0.2c0-0.1,0-0.2,0-0.3c0-0.1,0-0.2,0-0.3
	c0-0.1,0-0.2,0-0.2V-49.1z M43.7-49.1h-1v-1h-0.4v1h-0.7v0.4h0.7v2.1c0,0.1,0,0.3,0.1,0.4c0,0.1,0.1,0.2,0.2,0.3
	c0,0.1,0.2,0.2,0.3,0.2c0.1,0.1,0.3,0.1,0.4,0.1c0.1,0,0.2,0,0.3-0.1c0.1,0,0.2-0.1,0.3-0.1l-0.1-0.4c-0.1,0.1-0.2,0.1-0.3,0.1
	c-0.1,0-0.2,0-0.3,0c-0.2,0-0.3,0-0.4-0.1c-0.1-0.1-0.1-0.2-0.1-0.4v-2.1h1L43.7-49.1L43.7-49.1z M40.3-47.5v0.2
	c0,0.2,0,0.3-0.1,0.4c-0.1,0.2-0.1,0.3-0.2,0.4c-0.1,0.1-0.2,0.2-0.4,0.3c-0.2,0.1-0.4,0.1-0.6,0.1c-0.1,0-0.2,0-0.3-0.1
	c-0.1-0.1-0.2-0.1-0.3-0.1c-0.1-0.1-0.2-0.1-0.2-0.2c-0.1-0.1-0.1-0.2-0.1-0.3c0-0.2,0.1-0.3,0.1-0.4c0.1-0.1,0.2-0.2,0.3-0.2
	c0.2-0.1,0.3-0.1,0.5-0.1c0.2,0,0.4-0.1,0.5-0.1H40.3z M40.7-48c0-0.4-0.1-0.7-0.4-0.9c-0.3-0.2-0.6-0.3-1-0.3
	c-0.2,0-0.5,0.1-0.7,0.1c-0.3,0.1-0.4,0.2-0.6,0.4l0.3,0.3c0.3-0.3,0.6-0.4,1-0.4c0.3,0,0.5,0,0.7,0.2c0.2,0.1,0.3,0.3,0.3,0.6v0.2
	h-0.5c-0.2,0-0.4,0-0.6,0.1c-0.2,0.1-0.4,0.1-0.6,0.2c-0.2,0.1-0.4,0.2-0.5,0.4c-0.2,0.2-0.2,0.4-0.2,0.6c0,0.2,0.1,0.3,0.1,0.5
	c0,0.1,0.2,0.2,0.3,0.3c0.1,0.1,0.3,0.2,0.4,0.2c0.2,0.1,0.3,0.1,0.4,0.1c0.3,0,0.5-0.1,0.7-0.2c0.2-0.1,0.4-0.3,0.5-0.5
	c0,0.2,0,0.4,0.1,0.6h0.4c0-0.1-0.1-0.2-0.1-0.3c0-0.1,0-0.2,0-0.3c0-0.1,0-0.2,0-0.4s0-0.3,0-0.5V-48z M32.5-45.8H33v-4.4l3,4.4
	h0.6v-5h-0.5v4.4l-3-4.4h-0.6V-45.8z"/>
<path class="st0" d="M108-74.4c-0.8,0-1.6,0.4-1.6,1.3v15.2c0,0.9,0.8,1.3,1.6,1.3c0.8,0,1.6-0.4,1.6-1.3v-6.7h3.4
	c0.8,0,1.2-0.6,1.2-1.4c0-0.8-0.3-1.3-1.2-1.3h-3.4v-5.8C109.5-74,108.8-74.4,108-74.4z M81.3-74.4c-0.8,0-1.6,0.4-1.6,1.3v15.2
	c0,0.9,0.8,1.3,1.6,1.3c0.9,0,1.6-0.4,1.6-1.3v-15.2C82.9-74,82.1-74.4,81.3-74.4z M63-72.6c-0.8,0-1.6,0.4-1.6,1.3v9.6
	c0,1.8,0.6,2.3,2.4,2.3c6.2,0,9.9-0.3,12.7-0.7c0.7-0.1,1-0.8,0.9-1.5c-0.1-0.7-0.5-1.3-1.3-1.2c-3.3,0.5-6.8,0.7-11,0.7
	c-0.5,0-0.7-0.2-0.7-0.7v-8.6C64.6-72.2,63.8-72.6,63-72.6z M48.6-74.1c-0.8,0-1.5,0.4-1.5,1.2v4.7h-5.1c-0.8,0-1.1,0.6-1.1,1.3
	c0,0.7,0.4,1.3,1.1,1.3h5.1v6.4c0,0.9,0.7,1.2,1.5,1.2c0.7,0,1.4-0.4,1.4-1.2v-13.7C50-73.7,49.3-74.1,48.6-74.1z M54.3-74.4
	c-0.7,0-1.4,0.4-1.4,1.2v15.3c0,0.9,0.7,1.2,1.4,1.2c0.8,0,1.5-0.4,1.5-1.2v-15.3C55.7-74,55-74.4,54.3-74.4z M34.1-72.4
	c-0.8,0-1.6,0.4-1.6,1.3v9.3c0,1.8,0.6,2.3,2.4,2.3c4.1,0,7.4-0.3,9-0.5c0.7-0.1,1-0.8,0.9-1.5c-0.1-0.8-0.5-1.3-1.3-1.2
	c-2.1,0.3-5.2,0.5-7.3,0.5c-0.5,0-0.7-0.2-0.7-0.7v-8.3C35.6-72,34.9-72.4,34.1-72.4z"/>
<path class="st0" d="M99.7-65.6c0,2.4-2,4.4-4.4,4.4c-2.4,0-4.4-2-4.4-4.4s2-4.4,4.4-4.4C97.8-69.9,99.7-68,99.7-65.6z M102.5-65.6
	c0-4-3.2-7.2-7.2-7.2c-4,0-7.2,3.2-7.2,7.2s3.2,7.2,7.2,7.2S102.5-61.6,102.5-65.6z"/>
<path class="st0" d="M8.5-77.8c0,3.9-2.6,7.3-6.5,9.3c-0.3,0.2-0.6,0.5-0.7,0.8v0.1c4.7-2,7.9-5.8,7.9-10.2c0-1.1-0.2-2.1-0.6-3
	c-0.3,0.4-0.5,0.9-0.4,1.4C8.5-78.9,8.5-78.4,8.5-77.8z"/>
<path class="st0" d="M10-77.8c0,4.7-3.4,8.7-8.4,10.8c-0.4,0.2-0.6,0.5-0.7,0.8c5.8-2,9.9-6.5,9.9-11.6c0-1.5-0.4-3-1-4.3
	c-0.3,0.4-0.4,0.9-0.3,1.3C9.8-79.9,10-78.9,10-77.8z"/>
<path class="st0" d="M11.6-77.8c0,5.5-4.3,10.2-10.3,12.3c-0.4,0.1-0.6,0.4-0.7,0.8c6.9-2,11.9-7.1,11.9-13.1c0-2-0.6-3.9-1.5-5.6
	c-0.4,0.4-0.5,0.9-0.3,1.4C11.3-80.7,11.6-79.3,11.6-77.8z"/>
<path class="st0" d="M12.1-84.6c-0.3,0.3-0.4,0.8-0.2,1.1c0.9,1.8,1.5,3.6,1.5,5.6C13.3-71.5,8.2-66.1,1-64
	c-0.4,0.1-0.7,0.4-0.7,0.8c8.1-2,14-7.8,14-14.6c0-2.3-0.4-4.5-1.8-6.3C12.3-84.5,12.1-84.6,12.1-84.6z"/>
<path class="st0" d="M15.3-77.8c0,7.2-6.1,13.4-14.5,15.5c-0.4,0.1-0.7,0.4-0.7,0.8c9.4-2,16.2-8.6,16.2-16.3c0-1.3-0.5-2.5-1.3-3.5
	c-0.2-0.2-0.3-0.4-0.5-0.5C15-80.6,15.3-79.2,15.3-77.8z"/>
<path class="st0" d="M0.3-55.8c9.2-1.5,16.9-6.3,20.7-12.6c0.6-1,0.7-2.3,0.2-3.4C18.4-64.4,10.7-58.6,1-56.7
	C0.5-56.7,0.2-56.3,0.3-55.8z"/>
<path class="st0" d="M0.1-57.9C0.1-57.9,0.1-57.9,0.1-57.9c9.3-1.6,16.7-6.9,19.6-13.7c0.5-1.2,0.4-2.5-0.3-3.5
	C18-67.2,10.5-60.8,0.7-58.8C0.3-58.7,0-58.3,0.1-57.9z"/>
<path class="st0" d="M6.6-77.8c0-0.1,0-0.1,0-0.2c-1.4,2.1-2.9,4.5-4.1,7.2C5.1-72.6,6.6-75.1,6.6-77.8z"/>
<path class="st0" d="M17.4-77.8c0,8.2-7.1,15-16.7,17.2C0.3-60.5,0-60.2,0-59.8c9.2-1.8,16.3-7.4,18.1-14.5c0.4-1.4,0.1-2.8-0.7-4
	C17.3-78.2,17.4-78,17.4-77.8z"/>
<path class="st0" d="M0.7-53.6C0.7-53.6,0.7-53.6,0.7-53.6c9-1.4,16.7-5.7,21.3-11.5c0.8-1,1-2.2,0.6-3.3
	c-3.9,6.9-11.7,12.1-21.2,13.8C0.9-54.5,0.6-54.1,0.7-53.6z"/>
<path class="st0" d="M1.5-50.6c2.2,6.3,6.1,11.4,8.5,14.2c1.1,1.3,3.1,1.3,4.2,0c3.5-4,10-12.8,10-23c0-1.8-0.2-3.6-0.6-5.3
	c-4.6,6.1-12.1,10.6-21.1,12.4C1.7-52.2,1.3-51.4,1.5-50.6z"/>
<path class="st0" d="M7.2-77.8c0,3.1-1.8,5.8-4.6,7.7c-0.4,0.3-0.6,0.6-0.8,1c3.6-1.9,6-5.1,6-8.7c0-0.6-0.1-1.1-0.2-1.7
	c-0.3,0.4-0.5,1.4-0.5,1.4S7.2-77.9,7.2-77.8z"/>
<g>
	<path class="st1" d="M-67.3,12c3.1,0,3.7,2.5,3.7,3.9v18.4c0,0.1-0.1,2.3-0.7,3.3c-0.7,1.2-3.4,1.2-3.5,1.2h-6.6
		c-0.9,0-3.9-0.1-4.7-2c-0.7-1.6-0.6-3.4-0.6-5.1v-13c0-0.3-0.4-3.8,0.4-5.3c1-2,3.5-1.4,5.3-1.4c1.5,0,2.9,0,4.3,0
		C-69.4,11.9-67.3,12-67.3,12z M-74.9,33.3c0,0.4,0.3,0.8,0.8,0.9l3.4,0c0.6,0,1.2-0.1,1.7-0.4c0.5-0.3,0.5-1.1,0.4-1.8v-0.4
		c0-1.3,0-1.7,0-3V20c0,0,0-1.6-0.1-2.4c-0.1-0.9-0.8-1-1.1-1h0l-3.1-0.1c-1.2,0-1.6,0.3-1.8,1c-0.1,0.5-0.1,2-0.1,2.6V33.3z
		 M-53.8,22.3c0.2,0,0.4,0.1,0.7,0.1c0.3,0,0.5,0.1,0.8,0.1c0.5,0.1,1.1,0.3,1.4,0.9c0.2,0.3,0.3,0.6,0.3,0.9c0,0.4,0,0.7-0.1,1
		c-0.1,0.4-0.2,0.9-0.5,1.1c-0.3,0.2-0.6,0.4-1,0.5c-0.8,0.1-2.1,0-2.8,0c-0.1,0-0.1,0-0.1,0s0,0,0,0.1c0,1.2,0,3.3,0,4.6
		c0,1.2,0,2.5,0,3.7V36c0,1.3,0,3.1-0.9,4c-0.3,0.3-0.7,0.5-1.2,0.5c0,0,0,0-0.1,0c-2.4-0.1-2.6-2.9-2.6-4.4V14.5
		c0-0.1,0-1.9,0.8-2.7c0.3-0.3,1.1-0.5,1.6-0.5s1,0.2,1.3,0.5c0.7,0.7,0.7,1.4,0.8,2.2c0,0.1,0,0.3,0,0.4c0.1,0.8,0.1,1.7,0.1,2.6
		c0,0.5,0,1,0,1.6c0,0.3,0,0.5,0,0.8v2c0,0.3,0,0.5,0.1,0.8c0,0,0.7,0,0.8,0C-54.2,22.3-54.1,22.4-53.8,22.3L-53.8,22.3z"/>
	<path class="st1" d="M-31.2,25.2c0,0.2,0,0.4-0.2,0.7c-0.1,0.2-0.3,0.4-0.5,0.6c-0.1,0.2-0.4,0.4-0.6,0.5c-0.3,0.1-0.5,0.2-0.7,0.2
		c-0.7,0.1-1.1,0.1-1.6,0.1c-0.4-0.1-0.9-0.1-1.5-0.1c-1.3,0-2.6,0-4,0c-1.3,0-2.6-0.1-3.9-0.1c-0.3,0-0.7-0.2-0.9-0.4
		c-0.3-0.2-0.5-0.5-0.6-0.8c-0.1-0.3-0.2-0.6-0.3-0.9c0-0.4-0.1-0.7-0.1-1.1c0-0.5,0-1,0-1.6c0-0.7,0-1.3,0-2c0-0.6,0-1.2,0-1.9
		c0-0.6,0-1.2,0-1.7c0-0.3,0-0.6,0-1c0-0.4,0-0.7,0-1.1c0.1-0.3,0.1-0.7,0.2-1c0-0.4,0.1-0.7,0.3-1c0.1-0.3,0.4-0.5,0.7-0.7
		c0.3-0.2,0.6-0.3,1-0.4c0.3,0,0.6,0.1,0.9,0.2c0.4,0.1,0.6,0.3,0.8,0.6c0.4,0.7,0.6,1.4,0.6,2.4c0,0.8,0,1.6,0,2.4h6.4
		c0-0.5,0-1,0-1.4s0-0.8,0-1.3c0-0.4,0-0.9,0.2-1.4c0.1-0.5,0.3-0.9,0.7-1.1c0.3-0.2,0.6-0.3,1.1-0.3c0.4,0,0.8,0.1,1.1,0.2
		c0.2,0.2,0.4,0.5,0.6,0.9c0.1,0.4,0.2,0.7,0.2,1.1c0.1,0.5,0.1,0.9,0.1,1.4V25.2z M-23.1,35.9c0.3,0.1,0.6,0.2,0.8,0.3
		c0.2,0.1,0.4,0.3,0.5,0.5c0.2,0.1,0.3,0.3,0.3,0.6c0.2,0.9,0,1.6-0.4,2.1c-0.3,0.3-0.6,0.5-1,0.6c-0.3,0.1-0.5,0.1-0.5,0.1h-17.5
		c-1,0-1.8-0.1-2.4-0.4c-0.5-0.3-0.8-0.7-0.8-1.3v-4.9c0-0.1,0-0.3,0-0.5c0-0.2,0-0.4,0-0.7c0-0.2,0-0.5,0-0.7c0-0.2,0-0.4,0-0.5
		c0.1-0.5,0.3-1,0.7-1.3c0.5-0.3,1-0.4,1.5-0.4c0.1,0,0.3,0,0.5,0c0.1,0,0.3,0,0.4,0.1c0.3,0.1,0.6,0.2,0.8,0.5
		c0.2,0.2,0.3,0.4,0.4,0.7c0.1,0.3,0.2,0.9,0.3,1.4c0.1,0.9-0.1,0.4,0.1,3.8L-23.1,35.9z M-35.2,20.3c-4.2,0-6.4-0.2-6.6,0l0,3
		l6.6,0.1V20.3z M-21.6,28.4c-0.1,0.2-0.3,0.4-0.5,0.5c-0.7,0.4-1.7,0.4-2.4-0.1c-0.3-0.2-0.5-0.4-0.6-0.7c-0.2-0.4-0.4-0.8-0.4-1.2
		c-0.1-0.5-0.1-0.9-0.1-1.4c0-0.4,0-0.9,0-1.3c0-0.5,0-0.9,0-1.3c0-0.5,0-1.1,0-1.8c0-0.6,0-1.2,0-1.8V17v-1.7v-0.5
		c0-0.2,0-0.5,0-0.8c0-0.3,0.1-0.7,0.1-1c0.1-0.3,0.2-0.6,0.6-1c0.3-0.2,0.7-0.4,0.9-0.5c0.4-0.1,0.8-0.2,1.2-0.1
		c0.7,0.1,1.2,0.4,1.4,0.9c0.3,0.7,0.3,1.4,0.3,2c0,0.4,0,0.9,0,1.3c0,2,0,4.4,0,6.4c0,1,0,2,0,3c0,0.6,0,1.2,0,1.9
		C-21.1,27.5-21.3,28-21.6,28.4z"/>
</g>
<g>
	<path class="st2" d="M-99.3,43.2c-0.2-19.3-11.9-29.1-11.9-29.1s8.2,11.8,8.2,29.1H-99.3z"/>
	<path class="st2" d="M-103.4,28.7c0.1,1.2,0.2,2.4,0.2,3.6c2.6-8.8,6.7-14.1,6.7-14.1s-4,3-7.4,9.3
		C-103.6,27.8-103.5,28.2-103.4,28.7z"/>
	<g>
		<path class="st2" d="M-100.5,39.8c0,1.1,0.1,2.2,0.3,3.3c-3.6-7.5-8-11.8-8-11.8s4.1,2.2,8,7.3C-100.4,39-100.5,39.3-100.5,39.8z"
			/>
		<g>
			<path class="st1" d="M-109,18.6l0.9-0.8c1.5-2.2,0-6.7-3.5-10.6C-115.4,3-122.3,3-122.3,3s-0.7,6.9,3.1,11.1
				C-115.7,18-111.3,19.9-109,18.6z"/>
			<path class="st1" d="M-86.2,8.5c0,0-6.1-0.3-9.7,3.2c-3.3,3.3-4.8,7.3-3.6,9.3l0.8,0.8c2,1.2,6-0.3,9.3-3.6
				C-85.9,14.6-86.2,8.5-86.2,8.5z"/>
			<path class="st1" d="M-110.8,24.7c-3.7-2.7-9.2-1.6-9.2-1.6s0.6,5.6,4.3,8.3c3.5,2.5,7.3,3.3,8.9,1.9l0.6-0.8
				C-105.5,30.6-107.4,27.2-110.8,24.7z"/>
		</g>
	</g>
</g>
<polygon class="st2" points="-77.6,44.2 -125.5,44.2 -125.5,44 -102.7,41.6 -99.8,41.6 -77.6,44 "/>
<g>
	<path class="st2" d="M-55.1,66.7v0.7h-7.2v-0.7h3.1v-1.6h-2.5v-0.7h1.1v-2.4h-1.2v-0.7h5.9v0.7h-1.2v2.4h1.1v0.7h-2.5v1.6H-55.1z
		 M-59.6,64.4h1.8v-2.4h-1.8V64.4z"/>
	<path class="st2" d="M-46.4,66.7v0.7h-7.1v-0.7H-46.4z M-47.3,65.4h-5.5v-4.3h5.4v0.7h-4.5v1h4.3v0.7h-4.3v1.1h4.5V65.4z"/>
	<path class="st2" d="M-37.8,64v0.7h-7.1V64h3.1v-0.6h-2.4v-0.7h1.1v-1.3h-1.1v-0.7h5.8v0.7h-1.1v1.3h1.1v0.7h-2.4V64H-37.8z
		 M-43.2,67.6h4.7v0.7H-44v-1.9h4.5v-0.5h-4.5v-0.7h5.4V67h-4.5V67.6z M-42.3,62.7h1.8v-1.3h-1.8V62.7z"/>
	<path class="st2" d="M-34.9,65.8c1.2,0,2.3-0.1,3.6-0.3l0.1,0.7c-1.4,0.2-2.5,0.3-3.9,0.3h-0.7v-3.1h2.7v-1.5h-2.8v-0.7h3.7v2.9
		h-2.7V65.8z M-29.7,60.5v7.9h-0.9v-7.9H-29.7z"/>
	<path class="st2" d="M-20.4,66.7v0.7h-7.1v-0.7h3.1v-1.5c-1.4-0.1-2.4-0.9-2.4-2.1c0-1.3,1.2-2.1,2.9-2.1c1.7,0,2.9,0.8,2.9,2.1
		c0,1.2-1,2-2.5,2.1v1.5H-20.4z M-24,64.5c1.2,0,2-0.5,2-1.4s-0.8-1.4-2-1.4c-1.2,0-2,0.5-2,1.4S-25.1,64.5-24,64.5z"/>
</g>
<g>
	<path class="st0" d="M190.5,7.7c3,0,3.6,2.4,3.6,3.8v17.6c0,0.1-0.1,2.2-0.6,3.1c-0.7,1.1-3.2,1.2-3.4,1.2h-6.3
		c-0.9,0-3.8-0.1-4.5-1.9c-0.6-1.5-0.6-3.2-0.6-4.9V14.1c0-0.3-0.4-3.6,0.4-5.1c0.9-1.9,3.4-1.4,5.1-1.4c1.5,0,2.7,0,4.1,0
		C188.4,7.6,190.5,7.7,190.5,7.7z M183.2,28.1c0,0.4,0.3,0.8,0.8,0.9l3.2,0c0.6,0,1.1-0.1,1.6-0.3c0.5-0.3,0.5-1.1,0.4-1.7v-0.4
		c0-1.2,0-1.7,0-2.9v-8.4c0,0,0-1.5-0.1-2.3c-0.1-0.9-0.8-1-1.1-1h0l-3-0.1c-1.1,0-1.6,0.3-1.8,1c-0.1,0.5-0.1,1.9-0.1,2.5V28.1z
		 M203.4,17.6c0.2,0,0.4,0.1,0.7,0.1c0.2,0,0.5,0.1,0.8,0.1c0.5,0.1,1.1,0.3,1.3,0.8c0.2,0.3,0.2,0.6,0.2,0.9c0,0.3,0,0.7-0.1,1
		c-0.1,0.3-0.2,0.8-0.5,1.1c-0.3,0.2-0.6,0.4-0.9,0.5c-0.7,0.1-2,0-2.7,0c-0.1,0-0.1,0-0.1,0s0,0,0,0.1c0,1.1,0,3.2,0,4.4
		c0,1.2,0,2.4,0,3.5v0.5c0,1.2,0,3-0.8,3.8c-0.3,0.3-0.7,0.5-1.1,0.5c0,0,0,0-0.1,0c-2.3-0.1-2.5-2.8-2.5-4.2V10.1
		c0-0.1,0-1.8,0.7-2.6c0.3-0.3,1-0.5,1.6-0.5s1,0.2,1.3,0.5c0.6,0.7,0.7,1.4,0.7,2.2c0,0.1,0,0.3,0,0.4c0.1,0.8,0.1,1.6,0.1,2.5
		c0,0.5,0,1,0,1.5c0,0.3,0,0.5,0,0.8v1.9c0,0.2,0,0.5,0.1,0.8c0,0,0.7,0,0.7,0C203,17.6,203.2,17.6,203.4,17.6L203.4,17.6z"/>
	<path class="st0" d="M225.2,20.4c0,0.2,0,0.4-0.2,0.7c-0.1,0.2-0.2,0.4-0.5,0.6c-0.1,0.2-0.4,0.4-0.6,0.5c-0.2,0.1-0.5,0.2-0.7,0.2
		c-0.6,0.1-1.1,0.1-1.6,0.1c-0.4-0.1-0.9-0.1-1.5-0.1c-1.3,0-2.5,0-3.9,0c-1.3,0-2.5-0.1-3.8-0.1c-0.3,0-0.7-0.2-0.9-0.4
		c-0.2-0.2-0.5-0.5-0.6-0.8c-0.1-0.3-0.2-0.6-0.3-0.9c0-0.4-0.1-0.7-0.1-1.1c0-0.5,0-0.9,0-1.5c0-0.7,0-1.3,0-1.9c0-0.6,0-1.2,0-1.8
		c0-0.6,0-1.1,0-1.7c0-0.3,0-0.6,0-1c0-0.4,0-0.7,0-1c0.1-0.3,0.1-0.7,0.2-1c0-0.4,0.1-0.7,0.3-1c0.1-0.3,0.4-0.5,0.7-0.7
		c0.3-0.2,0.6-0.2,1-0.4c0.3,0,0.6,0.1,0.9,0.2c0.4,0.1,0.6,0.3,0.8,0.6c0.4,0.7,0.6,1.4,0.6,2.3c0,0.8,0,1.5,0,2.3h6.2
		c0-0.5,0-0.9,0-1.3s0-0.8,0-1.3c0-0.4,0-0.9,0.2-1.3c0.1-0.5,0.3-0.9,0.7-1.1c0.3-0.2,0.6-0.3,1.1-0.3c0.4,0,0.8,0.1,1.1,0.2
		c0.2,0.2,0.4,0.5,0.6,0.9c0.1,0.4,0.2,0.7,0.2,1.1c0.1,0.5,0.1,0.9,0.1,1.3V20.4z M233,30.7c0.3,0.1,0.6,0.2,0.8,0.2
		c0.2,0.1,0.4,0.3,0.5,0.5c0.2,0.1,0.3,0.3,0.3,0.6c0.2,0.9,0,1.6-0.4,2c-0.3,0.3-0.6,0.5-1,0.6c-0.3,0.1-0.5,0.1-0.5,0.1h-16.8
		c-0.9,0-1.7-0.1-2.3-0.4c-0.5-0.3-0.8-0.7-0.8-1.3v-4.7c0-0.1,0-0.3,0-0.5c0-0.2,0-0.4,0-0.7c0-0.2,0-0.5,0-0.7c0-0.2,0-0.4,0-0.5
		c0.1-0.5,0.3-1,0.7-1.2c0.5-0.3,0.9-0.4,1.5-0.4c0.1,0,0.2,0,0.5,0c0.1,0,0.3,0,0.4,0.1c0.3,0.1,0.6,0.2,0.8,0.5
		c0.2,0.2,0.3,0.4,0.4,0.7c0.1,0.3,0.2,0.9,0.2,1.3c0.1,0.8-0.1,0.3,0.1,3.6L233,30.7z M221.3,15.6c-4.1,0-6.2-0.2-6.3,0l0,2.9
		l6.3,0.1V15.6z M234.4,23.4c-0.1,0.2-0.3,0.4-0.5,0.5c-0.7,0.4-1.6,0.4-2.3-0.1c-0.3-0.2-0.5-0.4-0.6-0.7c-0.2-0.4-0.4-0.8-0.4-1.1
		c-0.1-0.5-0.1-0.9-0.1-1.4c0-0.4,0-0.8,0-1.2c0-0.5,0-0.9,0-1.3c0-0.5,0-1.1,0-1.7c0-0.6,0-1.1,0-1.8v-2.2v-1.6v-0.5
		c0-0.2,0-0.5,0-0.8c0-0.3,0.1-0.7,0.1-1c0.1-0.3,0.2-0.6,0.6-0.9c0.2-0.2,0.6-0.4,0.9-0.5c0.4-0.1,0.8-0.2,1.2-0.1
		c0.7,0.1,1.1,0.4,1.4,0.9c0.3,0.6,0.3,1.4,0.3,1.9c0,0.4,0,0.9,0,1.3c0,1.9,0,4.2,0,6.1c0,1,0,1.9,0,2.9c0,0.6,0,1.1,0,1.8
		C234.8,22.5,234.6,23,234.4,23.4z"/>
</g>
<path class="st2" d="M156.6,43.2c-0.2-19.3-11.9-29.1-11.9-29.1s8.2,11.8,8.2,29.1H156.6z"/>
<path class="st2" d="M152.6,28.7c0.1,1.2,0.2,2.4,0.2,3.6c2.6-8.8,6.7-14.1,6.7-14.1s-4,3-7.4,9.3C152.3,27.8,152.5,28.2,152.6,28.7
	z"/>
<path class="st2" d="M155.5,39.8c0,1.1,0.1,2.2,0.3,3.3c-3.6-7.5-8-11.8-8-11.8s4.1,2.2,8,7.3C155.6,39,155.4,39.3,155.5,39.8z"/>
<g>
	<path class="st0" d="M146.9,18.6l0.9-0.8c1.5-2.2,0-6.7-3.5-10.6C140.6,3,133.7,3,133.7,3s-0.7,6.9,3.1,11.1
		C140.3,18,144.6,19.9,146.9,18.6z"/>
	<path class="st0" d="M169.7,8.5c0,0-6.1-0.3-9.7,3.2c-3.3,3.3-4.8,7.3-3.6,9.3l0.8,0.8c2,1.2,6-0.3,9.3-3.6
		C170.1,14.6,169.7,8.5,169.7,8.5z"/>
	<path class="st0" d="M145.1,24.7c-3.7-2.7-9.2-1.6-9.2-1.6s0.6,5.6,4.3,8.3c3.5,2.5,7.3,3.3,8.9,1.9l0.6-0.8
		C150.5,30.6,148.6,27.2,145.1,24.7z"/>
</g>
<polygon class="st2" points="178.4,44.2 130.5,44.2 130.5,44 153.2,41.6 156.2,41.6 178.4,44 "/>
<g>
	<path class="st2" d="M200.8,44.2V45h-7.2v-0.7h3.1v-1.6h-2.5v-0.7h1.1v-2.4h-1.2v-0.7h5.9v0.7H199v2.4h1.1v0.7h-2.5v1.6H200.8z
		 M196.3,41.9h1.8v-2.4h-1.8V41.9z"/>
	<path class="st2" d="M209.5,44.2v0.7h-7.1v-0.7H209.5z M208.7,42.9h-5.5v-4.3h5.4v0.7h-4.5v1h4.3v0.7h-4.3v1.1h4.5V42.9z"/>
	<path class="st2" d="M218.2,41.5v0.7H211v-0.7h3.1v-0.6h-2.4v-0.7h1.1v-1.3h-1.1v-0.7h5.8v0.7h-1.1v1.3h1.1v0.7h-2.4v0.6H218.2z
		 M212.8,45.2h4.7v0.7h-5.6v-1.9h4.5v-0.5h-4.5v-0.7h5.4v1.8h-4.5V45.2z M213.7,40.2h1.8v-1.3h-1.8V40.2z"/>
	<path class="st2" d="M221.1,43.3c1.2,0,2.3-0.1,3.6-0.3l0.1,0.7c-1.4,0.2-2.5,0.3-3.9,0.3h-0.7v-3.1h2.7v-1.5h-2.8v-0.7h3.7v2.9
		h-2.7V43.3z M226.3,38v7.9h-0.9V38H226.3z"/>
	<path class="st2" d="M235.6,44.2v0.7h-7.1v-0.7h3.1v-1.5c-1.4-0.1-2.4-0.9-2.4-2.1c0-1.3,1.2-2.1,2.9-2.1c1.7,0,2.9,0.8,2.9,2.1
		c0,1.2-1,2-2.5,2.1v1.5H235.6z M232,42c1.2,0,2-0.5,2-1.4s-0.8-1.4-2-1.4c-1.2,0-2,0.5-2,1.4S230.8,42,232,42z"/>
</g>
<g>
	<path class="st1" d="M59.9,6.5c3.1,0,3.7,2.5,3.7,3.9v18.4c0,0.1-0.1,2.3-0.7,3.3c-0.7,1.2-3.4,1.2-3.5,1.2h-6.6
		c-0.9,0-3.9-0.1-4.7-2c-0.7-1.6-0.6-3.4-0.6-5.1v-13c0-0.3-0.4-3.8,0.4-5.3c1-2,3.5-1.4,5.3-1.4c1.5,0,2.9,0,4.3,0
		C57.7,6.5,59.8,6.5,59.9,6.5z M52.3,27.8c0,0.4,0.3,0.8,0.8,0.9l3.4,0c0.6,0,1.2-0.1,1.7-0.4c0.5-0.3,0.5-1.1,0.4-1.8v-0.4
		c0-1.3,0-1.7,0-3v-8.7c0,0,0-1.6-0.1-2.4c-0.1-0.9-0.8-1-1.1-1h0l-3.1-0.1c-1.2,0-1.6,0.3-1.8,1c-0.1,0.5-0.1,2-0.1,2.6V27.8z
		 M73.3,16.9c0.2,0,0.4,0.1,0.7,0.1c0.3,0,0.5,0.1,0.8,0.1c0.5,0.1,1.1,0.3,1.4,0.9c0.2,0.3,0.3,0.6,0.3,0.9c0,0.4,0,0.7-0.1,1
		c-0.1,0.4-0.2,0.9-0.5,1.1c-0.3,0.2-0.6,0.4-1,0.5c-0.8,0.1-2.1,0-2.8,0c-0.1,0-0.1,0-0.1,0s0,0,0,0.1c0,1.2,0,3.3,0,4.6
		c0,1.2,0,2.5,0,3.7v0.5c0,1.3,0,3.1-0.9,4c-0.3,0.3-0.7,0.5-1.2,0.5c0,0,0,0-0.1,0c-2.4-0.1-2.6-2.9-2.6-4.4V9c0-0.1,0-1.9,0.8-2.7
		C68.3,6,69,5.9,69.6,5.9s1,0.2,1.3,0.5c0.7,0.7,0.7,1.4,0.8,2.2c0,0.1,0,0.3,0,0.4c0.1,0.8,0.1,1.7,0.1,2.6c0,0.5,0,1,0,1.6
		c0,0.3,0,0.5,0,0.8v2c0,0.3,0,0.5,0.1,0.8c0,0,0.7,0,0.8,0C72.9,16.9,73.1,16.9,73.3,16.9L73.3,16.9z"/>
	<path class="st1" d="M96,19.8c0,0.2,0,0.4-0.2,0.7c-0.1,0.2-0.3,0.4-0.5,0.6c-0.1,0.2-0.4,0.4-0.6,0.5c-0.3,0.1-0.5,0.2-0.7,0.2
		c-0.7,0.1-1.1,0.1-1.6,0.1c-0.4-0.1-0.9-0.1-1.5-0.1c-1.3,0-2.6,0-4,0c-1.3,0-2.6-0.1-3.9-0.1c-0.3,0-0.7-0.2-0.9-0.4
		c-0.3-0.2-0.5-0.5-0.6-0.8c-0.1-0.3-0.2-0.6-0.3-0.9c0-0.4-0.1-0.7-0.1-1.1c0-0.5,0-1,0-1.6c0-0.7,0-1.3,0-2c0-0.6,0-1.2,0-1.9
		c0-0.6,0-1.2,0-1.7c0-0.3,0-0.6,0-1c0-0.4,0-0.7,0-1.1c0.1-0.3,0.1-0.7,0.2-1c0-0.4,0.1-0.7,0.3-1c0.1-0.3,0.4-0.5,0.7-0.7
		c0.3-0.2,0.6-0.3,1-0.4c0.3,0,0.6,0.1,0.9,0.2c0.4,0.1,0.6,0.3,0.8,0.6c0.4,0.7,0.6,1.4,0.6,2.4c0,0.8,0,1.6,0,2.4H92
		c0-0.5,0-1,0-1.4s0-0.8,0-1.3c0-0.4,0-0.9,0.2-1.4c0.1-0.5,0.3-0.9,0.7-1.1C93.2,6.1,93.5,6,94,6c0.4,0,0.8,0.1,1.1,0.2
		c0.2,0.2,0.4,0.5,0.6,0.9c0.1,0.4,0.2,0.7,0.2,1.1C96,8.7,96,9.1,96,9.6V19.8z M104.1,30.5c0.3,0.1,0.6,0.2,0.8,0.3
		c0.2,0.1,0.4,0.3,0.5,0.5c0.2,0.1,0.3,0.3,0.3,0.6c0.2,0.9,0,1.6-0.4,2.1c-0.3,0.3-0.6,0.5-1,0.6c-0.3,0.1-0.5,0.1-0.5,0.1H86.3
		c-1,0-1.8-0.1-2.4-0.4c-0.5-0.3-0.8-0.7-0.8-1.3v-4.9c0-0.1,0-0.3,0-0.5c0-0.2,0-0.4,0-0.7c0-0.2,0-0.5,0-0.7c0-0.2,0-0.4,0-0.5
		c0.1-0.5,0.3-1,0.7-1.3c0.5-0.3,1-0.4,1.5-0.4c0.1,0,0.3,0,0.5,0c0.1,0,0.3,0,0.4,0.1c0.3,0.1,0.6,0.2,0.8,0.5
		c0.2,0.2,0.3,0.4,0.4,0.7c0.1,0.3,0.2,0.9,0.3,1.4c0.1,0.9-0.1,0.4,0.1,3.8L104.1,30.5z M92,14.8c-4.2,0-6.4-0.2-6.6,0l0,3L92,18
		V14.8z M105.5,22.9c-0.1,0.2-0.3,0.4-0.5,0.5c-0.7,0.4-1.7,0.4-2.4-0.1c-0.3-0.2-0.5-0.4-0.6-0.7c-0.2-0.4-0.4-0.8-0.4-1.2
		c-0.1-0.5-0.1-0.9-0.1-1.4c0-0.4,0-0.9,0-1.3c0-0.5,0-0.9,0-1.3c0-0.5,0-1.1,0-1.8c0-0.6,0-1.2,0-1.8v-2.3V9.8V9.3
		c0-0.2,0-0.5,0-0.8c0-0.3,0.1-0.7,0.1-1c0.1-0.3,0.2-0.6,0.6-1c0.3-0.2,0.7-0.4,0.9-0.5c0.4-0.1,0.8-0.2,1.2-0.1
		c0.7,0.1,1.2,0.4,1.4,0.9c0.3,0.7,0.3,1.4,0.3,2c0,0.4,0,0.9,0,1.3c0,2,0,4.4,0,6.4c0,1,0,2,0,3c0,0.6,0,1.2,0,1.9
		C106,22,105.8,22.5,105.5,22.9z"/>
</g>
<g>
	<path class="st2" d="M27.8,43.2c-0.2-19.3-11.9-29.1-11.9-29.1s8.2,11.8,8.2,29.1H27.8z"/>
	<path class="st2" d="M23.8,28.7c0.1,1.2,0.2,2.4,0.2,3.6c2.6-8.8,6.7-14.1,6.7-14.1s-4,3-7.4,9.3C23.5,27.8,23.7,28.2,23.8,28.7z"
		/>
	<g>
		<path class="st2" d="M26.7,39.8c0,1.1,0.1,2.2,0.3,3.3c-3.6-7.5-8-11.8-8-11.8s4.1,2.2,8,7.3C26.7,39,26.6,39.3,26.7,39.8z"/>
		<g>
			<path class="st1" d="M18.1,18.6l0.9-0.8c1.5-2.2,0-6.7-3.5-10.6C11.8,3,4.9,3,4.9,3S4.1,9.9,7.9,14.1
				C11.5,18,15.8,19.9,18.1,18.6z"/>
			<path class="st1" d="M40.9,8.5c0,0-6.1-0.3-9.7,3.2C27.9,15,26.4,19,27.6,21l0.8,0.8c2,1.2,6-0.3,9.3-3.6
				C41.3,14.6,40.9,8.5,40.9,8.5z"/>
			<path class="st1" d="M16.3,24.7c-3.7-2.7-9.2-1.6-9.2-1.6s0.6,5.6,4.3,8.3c3.5,2.5,7.3,3.3,8.9,1.9l0.6-0.8
				C21.7,30.6,19.8,27.2,16.3,24.7z"/>
		</g>
	</g>
</g>
<polygon class="st2" points="49.6,45.4 1.7,45.4 1.7,45.1 24.4,42.7 27.4,42.7 49.6,45.1 "/>
<g>
	<path class="st2" d="M72,44.7v0.7h-7.2v-0.7H68v-1.6h-2.5v-0.7h1.1v-2.4h-1.2v-0.7h5.9v0.7h-1.2v2.4h1.1v0.7h-2.5v1.6H72z
		 M67.5,42.4h1.8v-2.4h-1.8V42.4z"/>
	<path class="st2" d="M80.7,44.7v0.7h-7.1v-0.7H80.7z M79.9,43.4h-5.5v-4.3h5.4v0.7h-4.5v1h4.3v0.7h-4.3v1.1h4.5V43.4z"/>
	<path class="st2" d="M89.4,42v0.7h-7.1V42h3.1v-0.6h-2.4v-0.7H84v-1.3h-1.1v-0.7h5.8v0.7h-1.1v1.3h1.1v0.7h-2.4V42H89.4z M84,45.7
		h4.7v0.7h-5.6v-1.9h4.5v-0.5h-4.5v-0.7h5.4V45H84V45.7z M84.9,40.7h1.8v-1.3h-1.8V40.7z"/>
	<path class="st2" d="M92.3,43.8c1.2,0,2.3-0.1,3.6-0.3l0.1,0.7c-1.4,0.2-2.5,0.3-3.9,0.3h-0.7v-3.1h2.7v-1.5h-2.8v-0.7H95v2.9h-2.7
		V43.8z M97.4,38.5v7.9h-0.9v-7.9H97.4z"/>
	<path class="st2" d="M106.8,44.7v0.7h-7.1v-0.7h3.1v-1.5c-1.4-0.1-2.4-0.9-2.4-2.1c0-1.3,1.2-2.1,2.9-2.1c1.7,0,2.9,0.8,2.9,2.1
		c0,1.2-1,2-2.5,2.1v1.5H106.8z M103.2,42.5c1.2,0,2-0.5,2-1.4s-0.8-1.4-2-1.4c-1.2,0-2,0.5-2,1.4S102,42.5,103.2,42.5z"/>
</g>
</svg>
